# xmcd CD database file
#
# Track frame offsets:
#	150
#	15573
#	32362
#	47488
#	60149
#	76497
#	91981
#	104262
#	117313
#	132107
#	146892
#	161579
#	177937
#	191211
#	206086
#	219090
#	234435
#	247607
#	262070
#	275272
#	291373
#	305092
#	316748
#	330394
#
# Disc length: 4637 seconds
#
# Revision: 0
# Processed by: cddbd v1.5.1PL0 Copyright (c) Steve Scherf et al.
# Submitted via: CDex 1.51
#
DISCID=48121b18
DTITLE=Varios - Bailao, Cerveja e Mulher
DYEAR=2004
DGENRE=Country
TTITLE0=O Bicho Vai Pegar - Edson e Hudson Part. Rio Negro e Solimoes
TTITLE1=Eu Me Apaixonei - Industria Musical
TTITLE2=Pra La de Bagda - Gian e Giovani
TTITLE3=Entreveiro de Alegria - Porca Veia
TTITLE4=Coisa Feita - Musical JM
TTITLE5=Filezinho - Kadu e Camilinho
TTITLE6=Bebo e Choro - Teodoro e Sampaio
TTITLE7=Mulher Ilusao - Blue Star Part. Banda Legal
TTITLE8=Me Chamavam de Louca  - Milenium Cia. Show
TTITLE9=I Love Meu Amor - Vanderlei Rodrigo
TTITLE10=Mexe Mais - Jonas e Rodrigo
TTITLE11=O Peru do Alemao - Vox 3
TTITLE12=Chuva de Verao - Tche Guri Part. Gian e Giovani
TTITLE13=Como Reconquistar o Seu Amor - Kadu e Camilinho
TTITLE14=Misturadao - Banda Legal
TTITLE15=Me Empresta a Sua Periquita - Ray e Renan
TTITLE16=So se for Agora - Ivonir Machado
TTITLE17=Coracao Socialista - Roberta Miranda
TTITLE18=Mimoso das Gurias - Xiru Missioneiro
TTITLE19=Metidinha - Banda KN
TTITLE20=Turbinada - Grupo Hello
TTITLE21=Tambor do Coracao - Os Fagundes
TTITLE22=Tem que ser Agora - Felipe e Falcao
TTITLE23=Ca no Fim do Mundo - Os Monarcas
EXTD=YEAR: 2004
EXTT0=
EXTT1=
EXTT2=
EXTT3=
EXTT4=
EXTT5=
EXTT6=
EXTT7=
EXTT8=
EXTT9=
EXTT10=
EXTT11=
EXTT12=
EXTT13=
EXTT14=
EXTT15=
EXTT16=
EXTT17=
EXTT18=
EXTT19=
EXTT20=
EXTT21=
EXTT22=
EXTT23=
PLAYORDER=
